<svg xmlns="http://www.w3.org/2000/svg" xmlns:xlink="http://www.w3.org/1999/xlink" width="1920" zoomAndPan="magnify" viewBox="0 0 1440 809.999993" height="1080" preserveAspectRatio="xMidYMid meet" version="1.0"><defs><g/></defs><g fill="#545454" fill-opacity="1"><g transform="translate(454.190641, 410.752178)"><g><path d="M 37.671875 -25.546875 L 48.5 0 L 38.75 0 L 28.984375 -23.953125 L 14.5625 -23.953125 L 14.5625 0 L 5.5625 0 L 5.5625 -58.1875 L 28.984375 -58.1875 C 32.640625 -58.1875 35.851562 -57.585938 38.625 -56.390625 C 41.394531 -55.203125 43.554688 -53.359375 45.109375 -50.859375 C 46.660156 -48.367188 47.4375 -45.171875 47.4375 -41.265625 C 47.4375 -37.398438 46.554688 -34.128906 44.796875 -31.453125 C 43.046875 -28.785156 40.671875 -26.816406 37.671875 -25.546875 Z M 14.5625 -50.109375 L 14.5625 -31.796875 L 27.765625 -31.796875 C 31.222656 -31.796875 33.878906 -32.597656 35.734375 -34.203125 C 37.585938 -35.804688 38.515625 -38.082031 38.515625 -41.03125 C 38.515625 -43.925781 37.585938 -46.160156 35.734375 -47.734375 C 33.878906 -49.316406 31.222656 -50.109375 27.765625 -50.109375 Z M 14.5625 -50.109375 "/></g></g></g><g fill="#545454" fill-opacity="1"><g transform="translate(513.212254, 410.752178)"><g><path d="M 14.5625 0 L 5.5625 0 L 5.5625 -58.1875 L 14.5625 -58.1875 Z M 14.5625 0 "/></g></g></g><g fill="#545454" fill-opacity="1"><g transform="translate(541.122259, 410.752178)"><g><path d="M 22.046875 0 L 5.5625 0 L 5.5625 -58.1875 L 22.109375 -58.1875 C 31.828125 -58.1875 39.273438 -55.65625 44.453125 -50.59375 C 49.640625 -45.539062 52.234375 -38.335938 52.234375 -28.984375 C 52.234375 -19.722656 49.640625 -12.578125 44.453125 -7.546875 C 39.273438 -2.515625 31.804688 0 22.046875 0 Z M 14.5625 -50.109375 L 14.5625 -8.078125 L 21.96875 -8.078125 C 24.96875 -8.078125 27.75 -8.40625 30.3125 -9.0625 C 32.882812 -9.726562 35.132812 -10.835938 37.0625 -12.390625 C 39 -13.941406 40.515625 -16.0625 41.609375 -18.75 C 42.703125 -21.445312 43.25 -24.859375 43.25 -28.984375 C 43.25 -34.066406 42.359375 -38.15625 40.578125 -41.25 C 38.796875 -44.351562 36.300781 -46.601562 33.09375 -48 C 29.894531 -49.40625 26.1875 -50.109375 21.96875 -50.109375 Z M 14.5625 -50.109375 "/></g></g></g><g fill="#545454" fill-opacity="1"><g transform="translate(604.414091, 410.752178)"><g><path d="M 43.859375 0 L 5.5625 0 L 5.5625 -58.1875 L 43.859375 -58.1875 L 43.859375 -50.109375 L 14.5625 -50.109375 L 14.5625 -33.171875 L 40.578125 -33.171875 L 40.578125 -25.171875 L 14.5625 -25.171875 L 14.5625 -8.078125 L 43.859375 -8.078125 Z M 43.859375 0 "/></g></g></g><g fill="#1e4e9c" fill-opacity="1"><g transform="translate(659.175006, 410.752178)"><g><path d="M 10.140625 0 L 0.765625 0 L 21.734375 -58.1875 L 31.71875 -58.1875 L 52.703125 0 L 43.390625 0 L 38.890625 -13.125 L 14.640625 -13.125 Z M 26.765625 -48.65625 L 17.390625 -21.046875 L 36.15625 -21.046875 Z M 26.765625 -48.65625 "/></g></g></g><g fill="#1e4e9c" fill-opacity="1"><g transform="translate(720.331732, 410.752178)"><g><path d="M 29.75 0 L 17.546875 0 L 1.296875 -58.1875 L 10.75 -58.1875 L 23.953125 -9.984375 L 36.53125 -58.1875 L 46.828125 -58.1875 L 59.484375 -9.921875 L 72.609375 -58.1875 L 82.0625 -58.1875 L 65.8125 0 L 53.609375 0 L 41.71875 -45.90625 Z M 29.75 0 "/></g></g></g><g fill="#1e4e9c" fill-opacity="1"><g transform="translate(811.303748, 410.752178)"><g><path d="M 10.140625 0 L 0.765625 0 L 21.734375 -58.1875 L 31.71875 -58.1875 L 52.703125 0 L 43.390625 0 L 38.890625 -13.125 L 14.640625 -13.125 Z M 26.765625 -48.65625 L 17.390625 -21.046875 L 36.15625 -21.046875 Z M 26.765625 -48.65625 "/></g></g></g><g fill="#1e4e9c" fill-opacity="1"><g transform="translate(872.46048, 410.752178)"><g><path d="M 37.671875 -25.546875 L 48.5 0 L 38.75 0 L 28.984375 -23.953125 L 14.5625 -23.953125 L 14.5625 0 L 5.5625 0 L 5.5625 -58.1875 L 28.984375 -58.1875 C 32.640625 -58.1875 35.851562 -57.585938 38.625 -56.390625 C 41.394531 -55.203125 43.554688 -53.359375 45.109375 -50.859375 C 46.660156 -48.367188 47.4375 -45.171875 47.4375 -41.265625 C 47.4375 -37.398438 46.554688 -34.128906 44.796875 -31.453125 C 43.046875 -28.785156 40.671875 -26.816406 37.671875 -25.546875 Z M 14.5625 -50.109375 L 14.5625 -31.796875 L 27.765625 -31.796875 C 31.222656 -31.796875 33.878906 -32.597656 35.734375 -34.203125 C 37.585938 -35.804688 38.515625 -38.082031 38.515625 -41.03125 C 38.515625 -43.925781 37.585938 -46.160156 35.734375 -47.734375 C 33.878906 -49.316406 31.222656 -50.109375 27.765625 -50.109375 Z M 14.5625 -50.109375 "/></g></g></g><g fill="#1e4e9c" fill-opacity="1"><g transform="translate(931.482099, 410.752178)"><g><path d="M 43.859375 0 L 5.5625 0 L 5.5625 -58.1875 L 43.859375 -58.1875 L 43.859375 -50.109375 L 14.5625 -50.109375 L 14.5625 -33.171875 L 40.578125 -33.171875 L 40.578125 -25.171875 L 14.5625 -25.171875 L 14.5625 -8.078125 L 43.859375 -8.078125 Z M 43.859375 0 "/></g></g></g><g fill="#545454" fill-opacity="1"><g transform="translate(301.224453, 503.190571)"><g><path d="M 8.328125 0 L 6.21875 0 L 6.21875 -15.5625 L 0.3125 -15.5625 L 0.3125 -17.453125 L 14.25 -17.453125 L 14.25 -15.5625 L 8.328125 -15.5625 Z M 8.328125 0 "/></g></g></g><g fill="#545454" fill-opacity="1"><g transform="translate(324.947561, 503.190571)"><g><path d="M 10.703125 -7.75 L 14.0625 0 L 11.75 0 L 8.671875 -7.359375 L 3.90625 -7.359375 L 3.90625 0 L 1.8125 0 L 1.8125 -17.453125 L 8.296875 -17.453125 C 9.972656 -17.453125 11.316406 -17.039062 12.328125 -16.21875 C 13.335938 -15.394531 13.84375 -14.144531 13.84375 -12.46875 C 13.84375 -11.289062 13.566406 -10.296875 13.015625 -9.484375 C 12.460938 -8.679688 11.691406 -8.101562 10.703125 -7.75 Z M 3.90625 -9.234375 L 8.03125 -9.234375 C 9.238281 -9.234375 10.160156 -9.503906 10.796875 -10.046875 C 11.429688 -10.585938 11.75 -11.367188 11.75 -12.390625 C 11.75 -13.398438 11.421875 -14.179688 10.765625 -14.734375 C 10.117188 -15.285156 9.207031 -15.5625 8.03125 -15.5625 L 3.90625 -15.5625 Z M 3.90625 -9.234375 "/></g></g></g><g fill="#545454" fill-opacity="1"><g transform="translate(349.1968, 503.190571)"><g><path d="M 2.453125 0 L 0.3125 0 L 6.75 -17.453125 L 9.125 -17.453125 L 15.5625 0 L 13.421875 0 L 11.890625 -4.28125 L 3.984375 -4.28125 Z M 7.9375 -15.296875 L 4.6875 -6.15625 L 11.1875 -6.15625 Z M 7.9375 -15.296875 "/></g></g></g><g fill="#545454" fill-opacity="1"><g transform="translate(374.223792, 503.190571)"><g><path d="M 3.90625 0 L 1.8125 0 L 1.8125 -17.453125 L 3.90625 -17.453125 Z M 3.90625 0 "/></g></g></g><g fill="#545454" fill-opacity="1"><g transform="translate(389.117178, 503.190571)"><g><path d="M 3.90625 0 L 1.8125 0 L 1.8125 -17.453125 L 4.875 -17.453125 L 12.71875 -2.109375 L 12.71875 -17.453125 L 14.796875 -17.453125 L 14.796875 0 L 11.734375 0 L 3.90625 -15.296875 Z M 3.90625 0 "/></g></g></g><g fill="#545454" fill-opacity="1"><g transform="translate(414.899034, 503.190571)"><g/></g></g><g fill="#545454" fill-opacity="1"><g transform="translate(430.455788, 503.190571)"><g><path d="M 8 0 L 5.625 0 L 0.453125 -17.453125 L 2.65625 -17.453125 L 6.984375 -3.015625 L 11.28125 -17.453125 L 13.296875 -17.453125 L 17.609375 -3 L 21.921875 -17.453125 L 24.109375 -17.453125 L 18.9375 0 L 16.5625 0 L 12.28125 -14.015625 Z M 8 0 "/></g></g></g><g fill="#545454" fill-opacity="1"><g transform="translate(464.175254, 503.190571)"><g><path d="M 3.90625 0 L 1.8125 0 L 1.8125 -17.453125 L 3.90625 -17.453125 Z M 3.90625 0 "/></g></g></g><g fill="#545454" fill-opacity="1"><g transform="translate(479.06864, 503.190571)"><g><path d="M 8.328125 0 L 6.21875 0 L 6.21875 -15.5625 L 0.3125 -15.5625 L 0.3125 -17.453125 L 14.25 -17.453125 L 14.25 -15.5625 L 8.328125 -15.5625 Z M 8.328125 0 "/></g></g></g><g fill="#545454" fill-opacity="1"><g transform="translate(502.791749, 503.190571)"><g><path d="M 3.90625 0 L 1.8125 0 L 1.8125 -17.453125 L 3.90625 -17.453125 L 3.90625 -9.71875 L 12.65625 -9.71875 L 12.65625 -17.453125 L 14.75 -17.453125 L 14.75 0 L 12.65625 0 L 12.65625 -7.84375 L 3.90625 -7.84375 Z M 3.90625 0 "/></g></g></g><g fill="#545454" fill-opacity="1"><g transform="translate(528.527862, 503.190571)"><g/></g></g><g fill="#545454" fill-opacity="1"><g transform="translate(544.084616, 503.190571)"><g><path d="M 3.90625 0 L 1.8125 0 L 1.8125 -17.453125 L 13.078125 -17.453125 L 13.078125 -15.5625 L 3.90625 -15.5625 L 3.90625 -9.703125 L 12.015625 -9.703125 L 12.015625 -7.828125 L 3.90625 -7.828125 Z M 3.90625 0 "/></g></g></g><g fill="#545454" fill-opacity="1"><g transform="translate(566.984219, 503.190571)"><g><path d="M 9.234375 0.234375 C 7.867188 0.234375 6.675781 -0.00390625 5.65625 -0.484375 C 4.644531 -0.972656 3.800781 -1.632812 3.125 -2.46875 C 2.457031 -3.3125 1.957031 -4.269531 1.625 -5.34375 C 1.300781 -6.414062 1.140625 -7.546875 1.140625 -8.734375 C 1.140625 -9.921875 1.300781 -11.050781 1.625 -12.125 C 1.957031 -13.207031 2.457031 -14.160156 3.125 -14.984375 C 3.800781 -15.816406 4.644531 -16.472656 5.65625 -16.953125 C 6.675781 -17.441406 7.867188 -17.6875 9.234375 -17.6875 C 10.628906 -17.6875 11.835938 -17.441406 12.859375 -16.953125 C 13.878906 -16.472656 14.722656 -15.816406 15.390625 -14.984375 C 16.066406 -14.160156 16.566406 -13.207031 16.890625 -12.125 C 17.222656 -11.050781 17.390625 -9.921875 17.390625 -8.734375 C 17.390625 -7.546875 17.222656 -6.414062 16.890625 -5.34375 C 16.566406 -4.269531 16.066406 -3.3125 15.390625 -2.46875 C 14.722656 -1.632812 13.878906 -0.972656 12.859375 -0.484375 C 11.835938 -0.00390625 10.628906 0.234375 9.234375 0.234375 Z M 9.234375 -1.671875 C 10.546875 -1.671875 11.648438 -1.972656 12.546875 -2.578125 C 13.453125 -3.191406 14.132812 -4.03125 14.59375 -5.09375 C 15.050781 -6.164062 15.28125 -7.378906 15.28125 -8.734375 C 15.28125 -10.097656 15.050781 -11.304688 14.59375 -12.359375 C 14.132812 -13.421875 13.453125 -14.253906 12.546875 -14.859375 C 11.648438 -15.472656 10.546875 -15.78125 9.234375 -15.78125 C 7.953125 -15.78125 6.863281 -15.472656 5.96875 -14.859375 C 5.082031 -14.253906 4.40625 -13.421875 3.9375 -12.359375 C 3.476562 -11.304688 3.25 -10.097656 3.25 -8.734375 C 3.25 -7.378906 3.476562 -6.164062 3.9375 -5.09375 C 4.40625 -4.03125 5.082031 -3.191406 5.96875 -2.578125 C 6.863281 -1.972656 7.953125 -1.671875 9.234375 -1.671875 Z M 9.234375 -1.671875 "/></g></g></g><g fill="#545454" fill-opacity="1"><g transform="translate(594.687572, 503.190571)"><g><path d="M 9.203125 0.234375 C 7.828125 0.234375 6.628906 -0.00390625 5.609375 -0.484375 C 4.597656 -0.972656 3.757812 -1.632812 3.09375 -2.46875 C 2.4375 -3.3125 1.945312 -4.269531 1.625 -5.34375 C 1.300781 -6.414062 1.140625 -7.546875 1.140625 -8.734375 C 1.140625 -9.921875 1.300781 -11.046875 1.625 -12.109375 C 1.945312 -13.179688 2.4375 -14.132812 3.09375 -14.96875 C 3.757812 -15.8125 4.597656 -16.472656 5.609375 -16.953125 C 6.628906 -17.441406 7.828125 -17.6875 9.203125 -17.6875 C 10.492188 -17.6875 11.628906 -17.472656 12.609375 -17.046875 C 13.597656 -16.617188 14.394531 -16.019531 15 -15.25 C 15.613281 -14.488281 16.003906 -13.613281 16.171875 -12.625 L 13.890625 -12.625 C 13.671875 -13.601562 13.140625 -14.378906 12.296875 -14.953125 C 11.460938 -15.523438 10.414062 -15.8125 9.15625 -15.8125 C 7.851562 -15.8125 6.765625 -15.503906 5.890625 -14.890625 C 5.015625 -14.285156 4.351562 -13.445312 3.90625 -12.375 C 3.46875 -11.3125 3.25 -10.097656 3.25 -8.734375 C 3.25 -7.378906 3.46875 -6.164062 3.90625 -5.09375 C 4.351562 -4.019531 5.015625 -3.175781 5.890625 -2.5625 C 6.765625 -1.945312 7.851562 -1.640625 9.15625 -1.640625 C 10.414062 -1.640625 11.460938 -1.945312 12.296875 -2.5625 C 13.140625 -3.175781 13.671875 -4.082031 13.890625 -5.28125 L 16.171875 -5.28125 C 15.898438 -3.59375 15.15625 -2.25 13.9375 -1.25 C 12.726562 -0.257812 11.148438 0.234375 9.203125 0.234375 Z M 9.203125 0.234375 "/></g></g></g><g fill="#545454" fill-opacity="1"><g transform="translate(620.949792, 503.190571)"><g><path d="M 8.125 0.234375 C 5.90625 0.234375 4.269531 -0.328125 3.21875 -1.453125 C 2.164062 -2.578125 1.640625 -4.101562 1.640625 -6.03125 L 1.640625 -17.453125 L 3.75 -17.453125 L 3.75 -6.03125 C 3.75 -4.675781 4.09375 -3.601562 4.78125 -2.8125 C 5.476562 -2.03125 6.59375 -1.640625 8.125 -1.640625 C 9.644531 -1.640625 10.75 -2.03125 11.4375 -2.8125 C 12.132812 -3.601562 12.484375 -4.675781 12.484375 -6.03125 L 12.484375 -17.453125 L 14.59375 -17.453125 L 14.59375 -6.03125 C 14.59375 -4.101562 14.066406 -2.578125 13.015625 -1.453125 C 11.960938 -0.328125 10.332031 0.234375 8.125 0.234375 Z M 8.125 0.234375 "/></g></g></g><g fill="#545454" fill-opacity="1"><g transform="translate(646.365654, 503.190571)"><g><path d="M 8.125 0.234375 C 6.976562 0.234375 5.894531 0.046875 4.875 -0.328125 C 3.851562 -0.703125 2.992188 -1.296875 2.296875 -2.109375 C 1.609375 -2.929688 1.160156 -3.988281 0.953125 -5.28125 L 3.09375 -5.28125 C 3.269531 -4.351562 3.625 -3.625 4.15625 -3.09375 C 4.695312 -2.570312 5.328125 -2.195312 6.046875 -1.96875 C 6.773438 -1.75 7.5 -1.640625 8.21875 -1.640625 C 9.4375 -1.640625 10.390625 -1.894531 11.078125 -2.40625 C 11.773438 -2.914062 12.125 -3.691406 12.125 -4.734375 C 12.125 -5.359375 11.988281 -5.867188 11.71875 -6.265625 C 11.457031 -6.660156 11.097656 -6.976562 10.640625 -7.21875 C 10.179688 -7.46875 9.664062 -7.664062 9.09375 -7.8125 C 8.519531 -7.96875 7.921875 -8.117188 7.296875 -8.265625 C 6.609375 -8.398438 5.929688 -8.554688 5.265625 -8.734375 C 4.609375 -8.921875 4.007812 -9.171875 3.46875 -9.484375 C 2.925781 -9.804688 2.488281 -10.238281 2.15625 -10.78125 C 1.832031 -11.320312 1.671875 -12.019531 1.671875 -12.875 C 1.671875 -13.863281 1.910156 -14.71875 2.390625 -15.4375 C 2.867188 -16.15625 3.535156 -16.707031 4.390625 -17.09375 C 5.242188 -17.488281 6.242188 -17.6875 7.390625 -17.6875 C 8.378906 -17.6875 9.316406 -17.515625 10.203125 -17.171875 C 11.097656 -16.828125 11.863281 -16.285156 12.5 -15.546875 C 13.132812 -14.816406 13.539062 -13.851562 13.71875 -12.65625 L 11.6875 -12.65625 C 11.519531 -13.445312 11.210938 -14.070312 10.765625 -14.53125 C 10.328125 -14.988281 9.8125 -15.316406 9.21875 -15.515625 C 8.625 -15.710938 8.003906 -15.8125 7.359375 -15.8125 C 6.191406 -15.8125 5.300781 -15.5625 4.6875 -15.0625 C 4.082031 -14.5625 3.78125 -13.894531 3.78125 -13.0625 C 3.78125 -12.363281 3.988281 -11.816406 4.40625 -11.421875 C 4.820312 -11.035156 5.367188 -10.738281 6.046875 -10.53125 C 6.722656 -10.320312 7.453125 -10.132812 8.234375 -9.96875 C 8.953125 -9.820312 9.664062 -9.648438 10.375 -9.453125 C 11.082031 -9.253906 11.722656 -8.976562 12.296875 -8.625 C 12.878906 -8.269531 13.347656 -7.796875 13.703125 -7.203125 C 14.054688 -6.609375 14.234375 -5.832031 14.234375 -4.875 C 14.234375 -3.332031 13.710938 -2.09375 12.671875 -1.15625 C 11.640625 -0.226562 10.125 0.234375 8.125 0.234375 Z M 8.125 0.234375 "/></g></g></g><g fill="#545454" fill-opacity="1"><g transform="translate(670.912268, 503.190571)"><g><path d="M 2.765625 0.234375 C 2.390625 0.234375 2.0625 0.0976562 1.78125 -0.171875 C 1.507812 -0.441406 1.375 -0.765625 1.375 -1.140625 C 1.375 -1.503906 1.507812 -1.816406 1.78125 -2.078125 C 2.0625 -2.335938 2.390625 -2.46875 2.765625 -2.46875 C 3.117188 -2.46875 3.425781 -2.332031 3.6875 -2.0625 C 3.945312 -1.800781 4.078125 -1.492188 4.078125 -1.140625 C 4.078125 -0.765625 3.945312 -0.441406 3.6875 -0.171875 C 3.425781 0.0976562 3.117188 0.234375 2.765625 0.234375 Z M 2.765625 0.234375 "/></g></g></g><g fill="#545454" fill-opacity="1"><g transform="translate(685.508291, 503.190571)"><g/></g></g><g fill="#545454" fill-opacity="1"><g transform="translate(701.065023, 503.190571)"><g><path d="M 10.703125 -7.75 L 14.0625 0 L 11.75 0 L 8.671875 -7.359375 L 3.90625 -7.359375 L 3.90625 0 L 1.8125 0 L 1.8125 -17.453125 L 8.296875 -17.453125 C 9.972656 -17.453125 11.316406 -17.039062 12.328125 -16.21875 C 13.335938 -15.394531 13.84375 -14.144531 13.84375 -12.46875 C 13.84375 -11.289062 13.566406 -10.296875 13.015625 -9.484375 C 12.460938 -8.679688 11.691406 -8.101562 10.703125 -7.75 Z M 3.90625 -9.234375 L 8.03125 -9.234375 C 9.238281 -9.234375 10.160156 -9.503906 10.796875 -10.046875 C 11.429688 -10.585938 11.75 -11.367188 11.75 -12.390625 C 11.75 -13.398438 11.421875 -14.179688 10.765625 -14.734375 C 10.117188 -15.285156 9.207031 -15.5625 8.03125 -15.5625 L 3.90625 -15.5625 Z M 3.90625 -9.234375 "/></g></g></g><g fill="#545454" fill-opacity="1"><g transform="translate(725.314274, 503.190571)"><g><path d="M 3.90625 0 L 1.8125 0 L 1.8125 -17.453125 L 3.90625 -17.453125 Z M 3.90625 0 "/></g></g></g><g fill="#545454" fill-opacity="1"><g transform="translate(740.20766, 503.190571)"><g><path d="M 6.59375 0 L 1.8125 0 L 1.8125 -17.453125 L 6.609375 -17.453125 C 9.523438 -17.453125 11.75 -16.6875 13.28125 -15.15625 C 14.8125 -13.632812 15.578125 -11.472656 15.578125 -8.671875 C 15.578125 -5.910156 14.804688 -3.773438 13.265625 -2.265625 C 11.722656 -0.753906 9.5 0 6.59375 0 Z M 3.90625 -15.5625 L 3.90625 -1.90625 L 6.5625 -1.90625 C 7.476562 -1.90625 8.351562 -2 9.1875 -2.1875 C 10.019531 -2.375 10.753906 -2.710938 11.390625 -3.203125 C 12.035156 -3.703125 12.539062 -4.394531 12.90625 -5.28125 C 13.28125 -6.164062 13.46875 -7.296875 13.46875 -8.671875 C 13.46875 -10.378906 13.175781 -11.734375 12.59375 -12.734375 C 12.007812 -13.734375 11.203125 -14.453125 10.171875 -14.890625 C 9.140625 -15.335938 7.945312 -15.5625 6.59375 -15.5625 Z M 3.90625 -15.5625 "/></g></g></g><g fill="#545454" fill-opacity="1"><g transform="translate(766.103899, 503.190571)"><g><path d="M 13.078125 0 L 1.8125 0 L 1.8125 -17.453125 L 13.078125 -17.453125 L 13.078125 -15.5625 L 3.90625 -15.5625 L 3.90625 -9.703125 L 12.015625 -9.703125 L 12.015625 -7.828125 L 3.90625 -7.828125 L 3.90625 -1.90625 L 13.078125 -1.90625 Z M 13.078125 0 "/></g></g></g><g fill="#545454" fill-opacity="1"><g transform="translate(789.346619, 503.190571)"><g/></g></g><g fill="#545454" fill-opacity="1"><g transform="translate(804.90335, 503.190571)"><g><path d="M 8 0 L 5.625 0 L 0.453125 -17.453125 L 2.65625 -17.453125 L 6.984375 -3.015625 L 11.28125 -17.453125 L 13.296875 -17.453125 L 17.609375 -3 L 21.921875 -17.453125 L 24.109375 -17.453125 L 18.9375 0 L 16.5625 0 L 12.28125 -14.015625 Z M 8 0 "/></g></g></g><g fill="#545454" fill-opacity="1"><g transform="translate(838.622816, 503.190571)"><g><path d="M 3.90625 0 L 1.8125 0 L 1.8125 -17.453125 L 3.90625 -17.453125 Z M 3.90625 0 "/></g></g></g><g fill="#545454" fill-opacity="1"><g transform="translate(853.516202, 503.190571)"><g><path d="M 8.328125 0 L 6.21875 0 L 6.21875 -15.5625 L 0.3125 -15.5625 L 0.3125 -17.453125 L 14.25 -17.453125 L 14.25 -15.5625 L 8.328125 -15.5625 Z M 8.328125 0 "/></g></g></g><g fill="#545454" fill-opacity="1"><g transform="translate(877.2393, 503.190571)"><g><path d="M 3.90625 0 L 1.8125 0 L 1.8125 -17.453125 L 3.90625 -17.453125 L 3.90625 -9.71875 L 12.65625 -9.71875 L 12.65625 -17.453125 L 14.75 -17.453125 L 14.75 0 L 12.65625 0 L 12.65625 -7.84375 L 3.90625 -7.84375 Z M 3.90625 0 "/></g></g></g><g fill="#545454" fill-opacity="1"><g transform="translate(902.975413, 503.190571)"><g/></g></g><g fill="#545454" fill-opacity="1"><g transform="translate(918.532144, 503.190571)"><g><path d="M 2.453125 0 L 0.3125 0 L 6.75 -17.453125 L 9.125 -17.453125 L 15.5625 0 L 13.421875 0 L 11.890625 -4.28125 L 3.984375 -4.28125 Z M 7.9375 -15.296875 L 4.6875 -6.15625 L 11.1875 -6.15625 Z M 7.9375 -15.296875 "/></g></g></g><g fill="#545454" fill-opacity="1"><g transform="translate(943.559136, 503.190571)"><g><path d="M 8 0 L 5.625 0 L 0.453125 -17.453125 L 2.65625 -17.453125 L 6.984375 -3.015625 L 11.28125 -17.453125 L 13.296875 -17.453125 L 17.609375 -3 L 21.921875 -17.453125 L 24.109375 -17.453125 L 18.9375 0 L 16.5625 0 L 12.28125 -14.015625 Z M 8 0 "/></g></g></g><g fill="#545454" fill-opacity="1"><g transform="translate(977.278602, 503.190571)"><g><path d="M 2.453125 0 L 0.3125 0 L 6.75 -17.453125 L 9.125 -17.453125 L 15.5625 0 L 13.421875 0 L 11.890625 -4.28125 L 3.984375 -4.28125 Z M 7.9375 -15.296875 L 4.6875 -6.15625 L 11.1875 -6.15625 Z M 7.9375 -15.296875 "/></g></g></g><g fill="#545454" fill-opacity="1"><g transform="translate(1002.305594, 503.190571)"><g><path d="M 10.703125 -7.75 L 14.0625 0 L 11.75 0 L 8.671875 -7.359375 L 3.90625 -7.359375 L 3.90625 0 L 1.8125 0 L 1.8125 -17.453125 L 8.296875 -17.453125 C 9.972656 -17.453125 11.316406 -17.039062 12.328125 -16.21875 C 13.335938 -15.394531 13.84375 -14.144531 13.84375 -12.46875 C 13.84375 -11.289062 13.566406 -10.296875 13.015625 -9.484375 C 12.460938 -8.679688 11.691406 -8.101562 10.703125 -7.75 Z M 3.90625 -9.234375 L 8.03125 -9.234375 C 9.238281 -9.234375 10.160156 -9.503906 10.796875 -10.046875 C 11.429688 -10.585938 11.75 -11.367188 11.75 -12.390625 C 11.75 -13.398438 11.421875 -14.179688 10.765625 -14.734375 C 10.117188 -15.285156 9.207031 -15.5625 8.03125 -15.5625 L 3.90625 -15.5625 Z M 3.90625 -9.234375 "/></g></g></g><g fill="#545454" fill-opacity="1"><g transform="translate(1026.554844, 503.190571)"><g><path d="M 13.078125 0 L 1.8125 0 L 1.8125 -17.453125 L 13.078125 -17.453125 L 13.078125 -15.5625 L 3.90625 -15.5625 L 3.90625 -9.703125 L 12.015625 -9.703125 L 12.015625 -7.828125 L 3.90625 -7.828125 L 3.90625 -1.90625 L 13.078125 -1.90625 Z M 13.078125 0 "/></g></g></g><g fill="#545454" fill-opacity="1"><g transform="translate(1049.797564, 503.190571)"><g><path d="M 3.90625 0 L 1.8125 0 L 1.8125 -17.453125 L 4.875 -17.453125 L 12.71875 -2.109375 L 12.71875 -17.453125 L 14.796875 -17.453125 L 14.796875 0 L 11.734375 0 L 3.90625 -15.296875 Z M 3.90625 0 "/></g></g></g><g fill="#545454" fill-opacity="1"><g transform="translate(1075.579454, 503.190571)"><g><path d="M 13.078125 0 L 1.8125 0 L 1.8125 -17.453125 L 13.078125 -17.453125 L 13.078125 -15.5625 L 3.90625 -15.5625 L 3.90625 -9.703125 L 12.015625 -9.703125 L 12.015625 -7.828125 L 3.90625 -7.828125 L 3.90625 -1.90625 L 13.078125 -1.90625 Z M 13.078125 0 "/></g></g></g><g fill="#545454" fill-opacity="1"><g transform="translate(1098.822219, 503.190571)"><g><path d="M 8.125 0.234375 C 6.976562 0.234375 5.894531 0.046875 4.875 -0.328125 C 3.851562 -0.703125 2.992188 -1.296875 2.296875 -2.109375 C 1.609375 -2.929688 1.160156 -3.988281 0.953125 -5.28125 L 3.09375 -5.28125 C 3.269531 -4.351562 3.625 -3.625 4.15625 -3.09375 C 4.695312 -2.570312 5.328125 -2.195312 6.046875 -1.96875 C 6.773438 -1.75 7.5 -1.640625 8.21875 -1.640625 C 9.4375 -1.640625 10.390625 -1.894531 11.078125 -2.40625 C 11.773438 -2.914062 12.125 -3.691406 12.125 -4.734375 C 12.125 -5.359375 11.988281 -5.867188 11.71875 -6.265625 C 11.457031 -6.660156 11.097656 -6.976562 10.640625 -7.21875 C 10.179688 -7.46875 9.664062 -7.664062 9.09375 -7.8125 C 8.519531 -7.96875 7.921875 -8.117188 7.296875 -8.265625 C 6.609375 -8.398438 5.929688 -8.554688 5.265625 -8.734375 C 4.609375 -8.921875 4.007812 -9.171875 3.46875 -9.484375 C 2.925781 -9.804688 2.488281 -10.238281 2.15625 -10.78125 C 1.832031 -11.320312 1.671875 -12.019531 1.671875 -12.875 C 1.671875 -13.863281 1.910156 -14.71875 2.390625 -15.4375 C 2.867188 -16.15625 3.535156 -16.707031 4.390625 -17.09375 C 5.242188 -17.488281 6.242188 -17.6875 7.390625 -17.6875 C 8.378906 -17.6875 9.316406 -17.515625 10.203125 -17.171875 C 11.097656 -16.828125 11.863281 -16.285156 12.5 -15.546875 C 13.132812 -14.816406 13.539062 -13.851562 13.71875 -12.65625 L 11.6875 -12.65625 C 11.519531 -13.445312 11.210938 -14.070312 10.765625 -14.53125 C 10.328125 -14.988281 9.8125 -15.316406 9.21875 -15.515625 C 8.625 -15.710938 8.003906 -15.8125 7.359375 -15.8125 C 6.191406 -15.8125 5.300781 -15.5625 4.6875 -15.0625 C 4.082031 -14.5625 3.78125 -13.894531 3.78125 -13.0625 C 3.78125 -12.363281 3.988281 -11.816406 4.40625 -11.421875 C 4.820312 -11.035156 5.367188 -10.738281 6.046875 -10.53125 C 6.722656 -10.320312 7.453125 -10.132812 8.234375 -9.96875 C 8.953125 -9.820312 9.664062 -9.648438 10.375 -9.453125 C 11.082031 -9.253906 11.722656 -8.976562 12.296875 -8.625 C 12.878906 -8.269531 13.347656 -7.796875 13.703125 -7.203125 C 14.054688 -6.609375 14.234375 -5.832031 14.234375 -4.875 C 14.234375 -3.332031 13.710938 -2.09375 12.671875 -1.15625 C 11.640625 -0.226562 10.125 0.234375 8.125 0.234375 Z M 8.125 0.234375 "/></g></g></g><g fill="#545454" fill-opacity="1"><g transform="translate(1123.36888, 503.190571)"><g><path d="M 8.125 0.234375 C 6.976562 0.234375 5.894531 0.046875 4.875 -0.328125 C 3.851562 -0.703125 2.992188 -1.296875 2.296875 -2.109375 C 1.609375 -2.929688 1.160156 -3.988281 0.953125 -5.28125 L 3.09375 -5.28125 C 3.269531 -4.351562 3.625 -3.625 4.15625 -3.09375 C 4.695312 -2.570312 5.328125 -2.195312 6.046875 -1.96875 C 6.773438 -1.75 7.5 -1.640625 8.21875 -1.640625 C 9.4375 -1.640625 10.390625 -1.894531 11.078125 -2.40625 C 11.773438 -2.914062 12.125 -3.691406 12.125 -4.734375 C 12.125 -5.359375 11.988281 -5.867188 11.71875 -6.265625 C 11.457031 -6.660156 11.097656 -6.976562 10.640625 -7.21875 C 10.179688 -7.46875 9.664062 -7.664062 9.09375 -7.8125 C 8.519531 -7.96875 7.921875 -8.117188 7.296875 -8.265625 C 6.609375 -8.398438 5.929688 -8.554688 5.265625 -8.734375 C 4.609375 -8.921875 4.007812 -9.171875 3.46875 -9.484375 C 2.925781 -9.804688 2.488281 -10.238281 2.15625 -10.78125 C 1.832031 -11.320312 1.671875 -12.019531 1.671875 -12.875 C 1.671875 -13.863281 1.910156 -14.71875 2.390625 -15.4375 C 2.867188 -16.15625 3.535156 -16.707031 4.390625 -17.09375 C 5.242188 -17.488281 6.242188 -17.6875 7.390625 -17.6875 C 8.378906 -17.6875 9.316406 -17.515625 10.203125 -17.171875 C 11.097656 -16.828125 11.863281 -16.285156 12.5 -15.546875 C 13.132812 -14.816406 13.539062 -13.851562 13.71875 -12.65625 L 11.6875 -12.65625 C 11.519531 -13.445312 11.210938 -14.070312 10.765625 -14.53125 C 10.328125 -14.988281 9.8125 -15.316406 9.21875 -15.515625 C 8.625 -15.710938 8.003906 -15.8125 7.359375 -15.8125 C 6.191406 -15.8125 5.300781 -15.5625 4.6875 -15.0625 C 4.082031 -14.5625 3.78125 -13.894531 3.78125 -13.0625 C 3.78125 -12.363281 3.988281 -11.816406 4.40625 -11.421875 C 4.820312 -11.035156 5.367188 -10.738281 6.046875 -10.53125 C 6.722656 -10.320312 7.453125 -10.132812 8.234375 -9.96875 C 8.953125 -9.820312 9.664062 -9.648438 10.375 -9.453125 C 11.082031 -9.253906 11.722656 -8.976562 12.296875 -8.625 C 12.878906 -8.269531 13.347656 -7.796875 13.703125 -7.203125 C 14.054688 -6.609375 14.234375 -5.832031 14.234375 -4.875 C 14.234375 -3.332031 13.710938 -2.09375 12.671875 -1.15625 C 11.640625 -0.226562 10.125 0.234375 8.125 0.234375 Z M 8.125 0.234375 "/></g></g></g><path stroke-linecap="round" transform="matrix(0.75, 0, 0, 0.75, 325.009034, 445.98691)" fill="none" stroke-linejoin="miter" d="M 1.498372 1.501829 L 1051.810924 1.501829 " stroke="#6d6e71" stroke-width="3" stroke-opacity="1" stroke-miterlimit="4"/><path stroke-linecap="round" transform="matrix(0.75, 0, 0, 0.75, 321.417324, 311.361391)" fill="none" stroke-linejoin="miter" d="M 1.50086 1.502521 L 1051.808205 1.502521 " stroke="#6d6e71" stroke-width="3" stroke-opacity="1" stroke-miterlimit="4"/></svg>